# xmcd
#
# Track frame offsets:
# 150
# 23731
# 40738
# 66449
# 85401
# 103007
# 125451
# 143815
# 166042
# 195006
# 202877
# 220409
#
# Disc length: 3228 seconds
#
#
# Revision: 0
# Processed by: cddbd v1.4PL0 Copyright (c) Steve Scherf et al.
# Submitted via: FreeRIP 2.40 
#
DISCID=9e0c9a0c
DTITLE=Ben Harper - The Will To Live
DYEAR=1900
DGENRE=Blues
TTITLE0=Faded
TTITLE1=Homeless Child
TTITLE2=Number Three
TTITLE3=Roses From My Friends
TTITLE4=Jah Work
TTITLE5=I Want To Be Ready
TTITLE6=The Will To Live
TTITLE7=Ashes
TTITLE8=Widow Of A Living Man
TTITLE9=Glory and Consequence
TTITLE10=Mama's Trippin'
TTITLE11=I Shall Not Walk Alone
EXTD=
EXTT0=
EXTT1=
EXTT2=
EXTT3=
EXTT4=
EXTT5=
EXTT6=
EXTT7=
EXTT8=
EXTT9=
EXTT10=
EXTT11=
PLAYORDER=
